<svg width="22" height="22" viewBox="0 0 22 22" fill="none" xmlns="http://www.w3.org/2000/svg">
<rect width="22" height="22" fill="white"/>
<path d="M8.20071 6.22954H21.3744C21.7257 6.22954 21.9891 5.96607 21.9891 5.61477C21.9891 5.26347 21.7257 5 21.3744 5H8.20071C7.84941 5 7.58594 5.26347 7.58594 5.61477C7.58594 5.96607 7.84941 6.22954 8.20071 6.22954Z" fill="black"/>
<path d="M21.3744 10.2694H8.20071C7.84941 10.2694 7.58594 10.5329 7.58594 10.8842C7.58594 11.2355 7.84941 11.499 8.20071 11.499H21.3744C21.7257 11.499 21.9891 11.2355 21.9891 10.8842C21.9891 10.5329 21.7257 10.2694 21.3744 10.2694Z" fill="black"/>
<path d="M21.3744 15.5389H8.20071C7.84941 15.5389 7.58594 15.8024 7.58594 16.1537C7.58594 16.505 7.84941 16.7685 8.20071 16.7685H21.3744C21.7257 16.7685 21.9891 16.505 21.9891 16.1537C21.9891 15.8024 21.7257 15.5389 21.3744 15.5389Z" fill="black"/>
<path d="M3.85329 7.28346C3.63373 7.0639 3.23852 7.0639 2.97505 7.32737L0.0329341 10.7525C-0.010978 10.8403 -0.010978 10.9282 0.0329341 10.9721L2.97505 14.2655C3.10679 14.3972 3.23852 14.4411 3.41417 14.4411C3.58982 14.4411 3.72156 14.3972 3.80938 14.3094C3.94112 14.2216 4.02894 14.0459 4.02894 13.8703C4.02894 13.7385 3.98503 13.6068 3.85329 13.4751L1.52595 10.8843L3.89721 8.1617C4.11677 7.94214 4.11677 7.54693 3.85329 7.28346Z" fill="black"/>
</svg>
