<svg width="13" height="13" viewBox="0 0 13 13" fill="none" xmlns="http://www.w3.org/2000/svg">
<path d="M0.672 3.152C0.672 2.37333 0.896 1.76533 1.344 1.328C1.80267 0.879999 2.38933 0.655999 3.104 0.655999C3.81867 0.655999 4.4 0.879999 4.848 1.328C5.30667 1.76533 5.536 2.37333 5.536 3.152C5.536 3.93067 5.30667 4.544 4.848 4.992C4.4 5.44 3.81867 5.664 3.104 5.664C2.38933 5.664 1.80267 5.44 1.344 4.992C0.896 4.544 0.672 3.93067 0.672 3.152ZM10.432 0.863999L4.048 12H2.256L8.64 0.863999H10.432ZM3.104 1.76C2.432 1.76 2.096 2.224 2.096 3.152C2.096 4.09067 2.432 4.56 3.104 4.56C3.424 4.56 3.66933 4.448 3.84 4.224C4.02133 3.98933 4.112 3.632 4.112 3.152C4.112 2.224 3.776 1.76 3.104 1.76ZM7.184 9.696C7.184 8.91733 7.408 8.30933 7.856 7.872C8.31467 7.424 8.90133 7.2 9.616 7.2C10.32 7.2 10.896 7.424 11.344 7.872C11.8027 8.30933 12.032 8.91733 12.032 9.696C12.032 10.4747 11.8027 11.088 11.344 11.536C10.896 11.984 10.32 12.208 9.616 12.208C8.90133 12.208 8.31467 11.984 7.856 11.536C7.408 11.088 7.184 10.4747 7.184 9.696ZM9.6 8.304C8.928 8.304 8.592 8.768 8.592 9.696C8.592 10.624 8.928 11.088 9.6 11.088C10.272 11.088 10.608 10.624 10.608 9.696C10.608 8.768 10.272 8.304 9.6 8.304Z" fill="url(#paint0_linear)"/>
<defs>
<linearGradient id="paint0_linear" x1="9.25424" y1="19.0887" x2="-3.49439" y2="-4.93001" gradientUnits="userSpaceOnUse">
<stop stop-color="#4942F8"/>
<stop offset="0.625" stop-color="#6B6DFC"/>
<stop offset="1" stop-color="#7F87FF"/>
</linearGradient>
</defs>
</svg>
