<svg width="14" height="14" viewBox="0 0 14 14" fill="none" xmlns="http://www.w3.org/2000/svg">
<path fill-rule="evenodd" clip-rule="evenodd" d="M1.3125 0.875C1.07088 0.875 0.875 1.07088 0.875 1.3125V3.9375C0.875 4.17912 0.679125 4.375 0.4375 4.375C0.195875 4.375 0 4.17912 0 3.9375V1.3125C0 0.587626 0.587626 0 1.3125 0H3.9375C4.17912 0 4.375 0.195875 4.375 0.4375C4.375 0.679125 4.17912 0.875 3.9375 0.875H1.3125ZM9.625 0.4375C9.625 0.195875 9.82088 0 10.0625 0H12.6875C13.4124 0 14 0.587626 14 1.3125V3.9375C14 4.17912 13.8041 4.375 13.5625 4.375C13.3209 4.375 13.125 4.17912 13.125 3.9375V1.3125C13.125 1.07088 12.9291 0.875 12.6875 0.875H10.0625C9.82088 0.875 9.625 0.679125 9.625 0.4375ZM0.4375 9.625C0.679125 9.625 0.875 9.82088 0.875 10.0625V12.6875C0.875 12.9291 1.07088 13.125 1.3125 13.125H3.9375C4.17912 13.125 4.375 13.3209 4.375 13.5625C4.375 13.8041 4.17912 14 3.9375 14H1.3125C0.587626 14 0 13.4124 0 12.6875V10.0625C0 9.82088 0.195875 9.625 0.4375 9.625ZM13.5625 9.625C13.8041 9.625 14 9.82088 14 10.0625V12.6875C14 13.4124 13.4124 14 12.6875 14H10.0625C9.82088 14 9.625 13.8041 9.625 13.5625C9.625 13.3209 9.82088 13.125 10.0625 13.125H12.6875C12.9291 13.125 13.125 12.9291 13.125 12.6875V10.0625C13.125 9.82088 13.3209 9.625 13.5625 9.625Z" fill="url(#paint0_linear)"/>
<path fill-rule="evenodd" clip-rule="evenodd" d="M2.625 12.25C2.625 12.25 1.75 12.25 1.75 11.375C1.75 10.5 2.625 7.875 7 7.875C11.375 7.875 12.25 10.5 12.25 11.375C12.25 12.25 11.375 12.25 11.375 12.25H2.625Z" fill="url(#paint1_linear)"/>
<path fill-rule="evenodd" clip-rule="evenodd" d="M7 7C8.44975 7 9.625 5.82475 9.625 4.375C9.625 2.92525 8.44975 1.75 7 1.75C5.55025 1.75 4.375 2.92525 4.375 4.375C4.375 5.82475 5.55025 7 7 7Z" fill="url(#paint2_linear)"/>
<defs>
<linearGradient id="paint0_linear" x1="9.9661" y1="18.4526" x2="0.170941" y2="-4.26039" gradientUnits="userSpaceOnUse">
<stop stop-color="#4942F8"/>
<stop offset="0.625" stop-color="#6B6DFC"/>
<stop offset="1" stop-color="#7F87FF"/>
</linearGradient>
<linearGradient id="paint1_linear" x1="9.22458" y1="13.6414" x2="7.75927" y2="5.48686" gradientUnits="userSpaceOnUse">
<stop stop-color="#4942F8"/>
<stop offset="0.625" stop-color="#6B6DFC"/>
<stop offset="1" stop-color="#7F87FF"/>
</linearGradient>
<linearGradient id="paint2_linear" x1="8.11229" y1="8.66973" x2="4.4391" y2="0.152355" gradientUnits="userSpaceOnUse">
<stop stop-color="#4942F8"/>
<stop offset="0.625" stop-color="#6B6DFC"/>
<stop offset="1" stop-color="#7F87FF"/>
</linearGradient>
</defs>
</svg>
